<?xml version="1.0" standalone="no"?>
<!DOCTYPE svg PUBLIC "-//W3C//DTD SVG 20010904//EN"
 "http://www.w3.org/TR/2001/REC-SVG-20010904/DTD/svg10.dtd">
<svg version="1.0" xmlns="http://www.w3.org/2000/svg"
 width="211.000000pt" height="211.000000pt" viewBox="0 0 211.000000 211.000000"
 preserveAspectRatio="xMidYMid meet">
<metadata>
Created by potrace 1.11, written by Peter Selinger 2001-2013
</metadata>
<g transform="translate(0.000000,211.000000) scale(0.100000,-0.100000)"
fill="#000000" stroke="none">
<path d="M0 1055 l0 -1055 1055 0 1055 0 0 1055 0 1055 -1055 0 -1055 0 0
-1055z m1314 931 c275 -82 503 -279 616 -531 214 -477 13 -1039 -455 -1272
-136 -68 -269 -97 -435 -97 -414 1 -771 254 -908 644 -43 123 -56 217 -49 372
6 152 26 234 87 366 132 281 400 487 708 542 26 5 115 7 197 6 128 -3 163 -7
239 -30z"/>
<path d="M883 1985 c-513 -93 -857 -579 -768 -1086 36 -207 127 -381 273 -521
130 -125 253 -193 442 -245 99 -27 347 -24 455 6 330 89 586 346 677 679 32
116 32 354 0 472 -44 162 -118 295 -226 409 -225 235 -543 342 -853 286z m376
-46 c323 -75 584 -334 672 -669 31 -118 31 -319 0 -435 -51 -190 -147 -340
-315 -490 -41 -37 -99 -72 -179 -110 -298 -141 -625 -117 -898 65 -137 91
-275 259 -336 410 -65 162 -84 367 -49 527 72 328 309 589 625 688 156 48 311
53 480 14z"/>
<path d="M945 1943 c-314 -37 -583 -236 -715 -526 -69 -153 -95 -385 -61 -542
36 -166 119 -320 236 -441 120 -122 252 -199 422 -246 112 -30 325 -31 438 -1
579 154 848 798 552 1323 -57 102 -205 249 -313 312 -165 96 -379 143 -559
121z m335 -43 c510 -147 779 -698 575 -1180 -100 -237 -298 -420 -545 -502
-91 -31 -102 -32 -260 -33 -145 0 -174 3 -238 23 -157 49 -274 118 -382 224
-341 335 -348 882 -16 1226 129 134 274 217 451 256 101 22 314 15 415 -14z"/>
<path d="M926 1884 c-29 -28 -16 -59 30 -74 24 -8 34 -17 32 -28 -4 -17 -20
-20 -50 -7 -13 5 -18 2 -18 -9 0 -12 10 -16 38 -16 45 0 62 14 62 51 0 22 -7
30 -40 43 -45 18 -53 36 -15 36 14 0 25 -5 25 -11 0 -5 5 -7 10 -4 6 3 10 13
10 21 0 20 -64 19 -84 -2z"/>
<path d="M1030 1884 c0 -12 6 -15 24 -10 22 5 24 4 20 -32 -3 -20 -6 -49 -9
-64 -4 -25 -2 -28 25 -28 27 0 29 2 19 18 -16 25 -3 120 14 103 17 -17 27 -13
27 9 0 18 -7 20 -60 20 -48 0 -60 -3 -60 -16z"/>
<path d="M1190 1831 c-17 -27 -38 -55 -46 -61 -20 -17 -18 -30 6 -30 13 0 20
7 20 20 0 11 6 20 13 20 22 0 40 -18 34 -33 -4 -10 2 -17 16 -21 34 -9 38 -7
28 12 -5 9 -12 43 -16 75 -4 31 -11 59 -15 62 -4 3 -22 -17 -40 -44z m16 -38
c-10 -10 -19 5 -10 18 6 11 8 11 12 0 2 -7 1 -15 -2 -18z"/>
<path d="M740 1838 c-41 -43 -5 -128 55 -128 36 0 59 33 52 77 -7 42 -21 59
-58 68 -20 5 -32 1 -49 -17z m65 -28 c8 -16 15 -41 15 -55 0 -42 -40 -30 -58
17 -25 64 12 97 43 38z"/>
<path d="M1307 1843 c-14 -13 -6 -25 13 -20 24 6 24 3 4 -56 -9 -26 -21 -47
-27 -47 -13 -1 22 -30 35 -30 4 0 8 8 8 17 0 24 31 103 40 103 4 0 11 -8 14
-17 6 -15 9 -15 16 -3 12 19 5 28 -37 45 -39 16 -56 19 -66 8z"/>
<path d="M650 1803 c0 -7 -8 -13 -18 -13 -48 0 -69 -78 -32 -117 31 -34 58
-38 91 -14 15 12 33 21 39 21 6 0 6 7 -2 20 -17 26 -21 25 -36 -10 -15 -34
-32 -38 -54 -12 -48 55 -41 99 14 88 15 -3 28 -2 28 2 0 14 -29 48 -30 35z"/>
<path d="M1438 1752 c-10 -21 -27 -48 -39 -61 -24 -25 -23 -26 33 -56 31 -17
48 -19 48 -6 0 5 -11 12 -25 15 -28 7 -31 17 -14 48 11 20 12 21 25 4 14 -19
34 -14 34 9 0 9 -6 12 -15 9 -10 -4 -15 0 -15 14 0 29 18 37 39 18 20 -18 31
-20 31 -7 0 10 -62 51 -76 51 -5 0 -17 -17 -26 -38z"/>
<path d="M877 1705 c-169 -43 -338 -176 -418 -330 -62 -119 -83 -207 -81 -338
2 -102 22 -181 73 -287 34 -69 58 -101 128 -170 152 -150 334 -214 545 -190
280 32 496 222 572 502 23 83 23 241 0 328 -55 212 -230 400 -436 471 -84 28
-294 36 -383 14z m374 -32 c282 -93 464 -362 446 -658 -11 -170 -71 -299 -198
-426 -199 -198 -490 -244 -744 -118 -260 130 -403 413 -352 695 19 106 88 250
156 326 91 100 240 184 374 208 87 15 226 4 318 -27z"/>
<path d="M891 1670 c-101 -27 -166 -58 -234 -114 -112 -91 -168 -170 -213
-301 -24 -70 -28 -95 -28 -200 0 -104 4 -131 27 -200 63 -188 216 -341 407
-406 88 -30 241 -37 332 -15 226 53 392 203 470 426 29 82 35 237 13 336 -76
345 -432 563 -774 474z m321 -38 c136 -38 281 -148 348 -265 41 -71 39 -82 -7
-58 -44 22 -66 45 -117 120 -36 53 -52 56 -19 3 54 -87 130 -152 178 -152 8 0
15 -7 15 -15 0 -20 -51 -20 -89 -1 -29 16 -102 90 -120 124 -6 11 -10 48 -9
81 2 66 -12 95 -34 73 -7 -7 -22 -12 -34 -12 -15 0 -30 -12 -43 -33 -11 -18
-48 -59 -81 -91 l-60 -58 -53 58 c-86 95 -142 134 -190 134 -24 0 -56 -8 -74
-19 -81 -50 -234 -122 -250 -119 -14 3 -6 16 42 67 155 164 376 224 597 163z
m128 -139 c0 -5 -4 -15 -10 -23 -11 -18 -25 -7 -17 15 6 15 27 21 27 8z m-399
-14 c11 -5 84 -74 162 -152 l142 -141 -35 -7 c-19 -4 -51 -9 -70 -11 -32 -2
-35 0 -34 22 1 14 5 39 9 57 7 29 5 33 -31 51 -22 11 -48 30 -59 42 -32 37
-94 60 -160 60 -104 0 -191 -56 -235 -152 -35 -75 -54 -88 -115 -81 -27 3 -52
7 -54 9 -6 5 17 79 41 135 l19 47 58 4 c47 3 76 15 167 66 111 62 154 74 195
51z m352 -36 c-4 -33 -16 -52 -56 -92 -39 -39 -54 -48 -64 -40 -20 17 -16 25
32 70 25 23 54 57 66 76 12 19 23 33 24 31 2 -2 1 -22 -2 -45z m57 -48 c0 -16
-6 -25 -15 -25 -9 0 -15 9 -15 25 0 16 6 25 15 25 9 0 15 -9 15 -25z m-419
-35 c20 -6 44 -18 53 -29 16 -18 15 -19 -21 -24 -21 -4 -70 -25 -108 -48 -74
-45 -137 -59 -174 -39 -22 11 -22 12 -4 39 54 84 161 127 254 101z m354 -158
c-3 -4 -23 14 -45 38 l-38 45 41 43 42 43 3 -82 c2 -45 0 -84 -3 -87z m226 53
c15 -8 46 -15 68 -15 35 0 41 -3 47 -25 4 -14 4 -28 1 -31 -3 -3 -55 0 -115 6
l-109 12 -7 52 c-3 28 -6 66 -6 85 l0 33 46 -51 c26 -29 59 -58 75 -66z m-161
49 c0 -28 -3 -35 -17 -32 -31 6 -29 68 2 68 11 0 15 -10 15 -36z m-279 -41 c5
-5 7 -17 3 -26 -5 -13 -19 -17 -66 -17 -64 0 -89 -10 -178 -70 -30 -21 -81
-46 -113 -56 -53 -16 -61 -17 -85 -3 -19 10 -28 24 -30 48 l-3 33 29 -22 c43
-32 80 -22 193 50 51 34 107 65 124 70 35 11 113 6 126 -7z m279 -49 c0 -8 -9
-14 -20 -14 -22 0 -28 26 -7 33 16 6 27 -1 27 -19z m-624 -28 c24 4 23 2 -11
-11 -43 -17 -65 -14 -65 9 0 12 5 13 23 7 13 -5 36 -7 53 -5z m337 -48 c4 -29
9 -69 12 -88 6 -30 3 -36 -17 -45 -13 -5 -24 -20 -26 -32 -2 -15 -10 -23 -22
-23 -10 0 -22 -4 -25 -10 -3 -5 0 -10 8 -10 8 0 20 -6 26 -14 20 -24 -15 -49
-58 -41 -65 12 -85 27 -116 92 -29 61 -45 78 -45 48 0 -24 -28 -6 -35 23 -5
20 -2 30 10 37 10 5 34 21 54 34 80 53 143 81 186 81 l42 0 6 -52z m-493 -91
c14 -94 9 -112 -41 -155 -37 -30 -37 -65 -3 -97 25 -23 25 -25 7 -25 -22 0
-24 3 -55 90 -22 64 -39 188 -31 237 6 33 6 33 58 33 l53 0 12 -83z m1076 57
c9 -34 -4 -152 -22 -217 -26 -86 -109 -227 -135 -227 -13 0 -3 30 17 53 10 12
19 27 19 32 1 6 9 22 19 38 22 33 17 84 -14 130 -18 27 -20 28 -13 7 23 -70
-6 -160 -53 -168 -17 -3 -17 -1 2 15 67 56 60 126 -23 247 -25 36 -33 57 -28
74 7 28 -3 24 -58 -27 -79 -73 -118 -201 -82 -271 19 -37 40 -40 31 -5 -9 37
12 100 46 132 l29 28 -16 -37 c-16 -39 -19 -85 -9 -112 9 -24 24 -9 24 25 0
35 12 37 33 7 15 -22 16 -22 16 26 1 32 -7 64 -24 98 -38 75 -30 81 16 12 49
-76 58 -121 34 -174 l-18 -40 -84 0 c-67 0 -83 -3 -83 -15 0 -8 6 -15 14 -15
15 0 31 -27 35 -60 0 -6 20 -31 42 -55 23 -25 37 -45 32 -45 -6 0 -46 41 -89
91 -43 50 -92 98 -108 106 -17 9 -81 28 -145 44 -122 30 -164 50 -87 42 24 -3
56 -3 70 1 25 6 26 10 26 70 0 63 0 64 31 70 27 5 30 9 25 28 -4 13 -9 44 -13
71 l-6 47 271 0 272 0 6 -26z m-959 -81 c-34 -17 -81 -14 -85 7 -2 12 8 14 55
11 57 -3 57 -3 30 -18z m3 -43 c-26 -20 -80 -27 -80 -11 0 6 8 8 18 6 9 -1 31
3 47 10 41 18 44 18 15 -5z m15 -36 c-50 -42 -115 -59 -115 -31 0 9 10 12 28
10 16 -2 43 6 67 21 52 31 57 31 20 0z m125 -95 c6 -52 13 -105 16 -118 5 -24
6 -23 31 12 23 32 58 55 68 45 2 -2 -24 -31 -57 -66 l-60 -62 -48 44 c-26 24
-62 51 -80 61 l-32 17 34 23 c41 28 58 52 83 118 23 62 31 49 45 -74z m-88 83
c-56 -78 -121 -113 -174 -93 -16 6 -28 15 -28 21 0 16 24 22 50 12 37 -14 68
-3 118 44 55 51 60 53 34 16z m424 -194 c2 -2 -7 -49 -20 -104 -13 -54 -28
-117 -32 -139 -8 -34 -13 -40 -37 -43 -55 -7 -56 -4 -36 122 27 179 32 188 85
176 20 -5 37 -10 40 -12z m-157 -43 c-5 -22 -16 -82 -24 -134 -8 -52 -16 -96
-19 -98 -8 -8 -66 8 -66 19 0 5 23 59 51 119 28 61 49 112 46 115 -6 6 -61
-70 -114 -159 l-41 -67 -48 61 c-123 156 -181 201 -91 72 74 -107 73 -105 43
-92 -17 8 -38 37 -63 88 -21 41 -38 81 -39 88 -4 23 38 -6 114 -81 l73 -71 27
31 c15 17 53 61 86 98 32 37 62 64 67 59 4 -4 4 -26 -2 -48z m-408 -17 c42
-59 36 -67 -11 -13 -22 25 -40 51 -40 56 0 16 19 0 51 -43z m707 -164 c-24
-12 -67 -29 -97 -38 l-54 -16 7 43 c4 23 16 71 27 106 l21 63 69 -68 69 -69
-42 -21z"/>
<path d="M940 1121 c-40 -34 -35 -54 6 -22 15 11 32 21 38 21 6 0 3 -5 -7 -11
-24 -14 -13 -27 18 -21 20 3 25 0 25 -16 0 -12 4 -23 9 -27 13 -7 11 76 -2 93
-16 20 -50 13 -87 -17z"/>
<path d="M1086 683 c-14 -15 -5 -43 14 -43 13 0 20 7 20 19 0 19 -23 35 -34
24z"/>
<path d="M1063 574 c-3 -9 0 -20 8 -25 23 -14 29 -11 29 16 0 28 -27 35 -37 9z"/>
<path d="M483 1687 c-47 -47 -17 -95 48 -77 21 6 37 6 43 0 13 -13 -11 -40
-36 -40 -17 0 -18 -3 -8 -15 10 -12 16 -10 42 14 24 23 29 34 24 54 -8 32 -38
43 -77 27 -33 -14 -45 -9 -36 15 4 8 18 15 33 15 22 0 25 2 14 15 -16 19 -20
18 -47 -8z"/>
<path d="M1568 1634 c-45 -53 -46 -67 -13 -99 32 -33 46 -32 99 13 47 39 55
56 31 66 -8 3 -15 0 -15 -7 0 -19 -63 -77 -82 -77 -9 0 -20 9 -23 21 -5 16 2
30 31 60 20 21 41 36 47 32 5 -3 4 4 -2 16 -17 30 -31 25 -73 -25z"/>
<path d="M390 1595 c-7 -9 -11 -17 -9 -18 55 -37 98 -75 99 -84 0 -17 8 -16
26 1 15 15 20 41 6 32 -5 -3 -30 15 -57 39 -27 25 -49 45 -51 45 -1 0 -7 -7
-14 -15z"/>
<path d="M1708 1532 c-9 -9 -34 -26 -55 -37 -21 -10 -39 -20 -41 -21 -1 0 0
-9 4 -18 8 -20 24 -21 24 -2 0 8 16 23 35 35 19 11 35 18 35 15 0 -2 -11 -31
-24 -64 -14 -33 -21 -62 -17 -64 4 -3 30 10 57 28 27 18 55 31 62 29 14 -5 15
6 3 26 -7 11 -13 9 -30 -8 -26 -26 -46 -28 -36 -3 24 57 28 71 22 86 -8 20
-17 20 -39 -2z"/>
<path d="M326 1503 c-19 -25 -24 -72 -10 -94 3 -6 21 -17 40 -25 38 -16 81 -5
90 23 3 10 10 26 15 35 6 13 4 20 -11 28 -22 12 -23 9 -20 -33 2 -36 -24 -45
-67 -22 -27 15 -33 24 -31 44 2 18 10 27 26 29 26 4 29 18 5 31 -14 7 -22 3
-37 -16z"/>
<path d="M267 1393 c-11 -10 -8 -45 3 -38 12 8 61 -5 55 -15 -3 -4 -25 -13
-50 -19 -39 -10 -45 -15 -45 -37 0 -15 4 -23 10 -19 12 7 107 -22 115 -35 3
-5 -28 -20 -70 -32 -41 -13 -75 -26 -75 -30 0 -4 26 -20 58 -35 31 -15 59 -31
60 -35 7 -16 22 -7 22 12 0 13 -7 20 -20 20 -23 0 -24 4 -10 30 6 11 16 17 24
14 9 -3 15 5 19 23 3 15 8 35 12 44 5 12 0 17 -17 17 -13 0 -36 6 -53 12 l-30
13 63 20 c34 12 61 25 59 31 -2 5 -27 17 -56 27 -30 9 -57 22 -60 28 -4 6 -10
8 -14 4z m33 -243 c0 -5 -4 -10 -9 -10 -6 0 -13 5 -16 10 -3 6 1 10 9 10 9 0
16 -4 16 -10z"/>
<path d="M1810 1381 c0 -10 -89 -45 -111 -44 -12 1 -15 -4 -12 -18 6 -23 23
-35 32 -23 10 14 80 44 102 44 15 0 19 5 15 16 -3 9 -6 20 -6 25 0 5 -4 9 -10
9 -5 0 -10 -4 -10 -9z"/>
<path d="M1840 1303 c0 -5 -25 -27 -55 -47 -30 -20 -55 -40 -55 -45 0 -4 26
-11 57 -15 31 -4 68 -9 80 -12 18 -5 22 -3 17 10 -4 11 -19 16 -53 16 l-46 1
29 23 c16 14 36 22 44 19 11 -5 13 -1 7 18 -8 27 -25 49 -25 32z"/>
<path d="M1742 1086 c2 -27 8 -51 15 -53 7 -3 11 8 10 29 -2 28 1 32 23 33 20
0 25 -4 23 -22 -2 -14 3 -23 12 -23 18 0 28 17 15 25 -19 12 -10 25 16 25 23
0 25 -3 19 -30 -4 -17 -2 -30 3 -30 13 0 21 47 13 74 -5 19 -13 21 -79 21
l-73 0 3 -49z"/>
<path d="M307 1058 c-21 -15 -31 -18 -40 -9 -16 16 -54 13 -61 -5 -3 -9 -6
-33 -6 -54 l0 -39 38 7 c20 4 54 7 75 7 31 0 37 3 37 22 0 19 -4 21 -37 17
l-38 -5 38 22 c21 13 37 31 37 41 0 23 -8 22 -43 -4z m-39 -50 c3 -13 -3 -18
-22 -18 -20 0 -26 5 -26 21 0 15 5 20 22 17 13 -2 24 -11 26 -20z"/>
<path d="M1740 982 c0 -26 3 -28 30 -24 42 6 38 -14 -5 -22 -26 -5 -35 -12
-35 -26 0 -23 -2 -23 38 -9 26 9 35 8 48 -5 8 -9 22 -16 29 -16 21 0 45 40 45
75 0 30 -1 30 -57 32 -31 2 -61 7 -67 13 -17 17 -26 11 -26 -18z m130 -46 c0
-16 -19 -25 -37 -18 -23 8 -14 32 12 32 15 0 25 -6 25 -14z"/>
<path d="M215 878 c4 -18 11 -43 16 -55 8 -21 9 -21 39 -6 17 8 49 17 71 20
35 5 39 8 33 27 -9 28 -14 33 -22 20 -4 -6 -17 -14 -29 -18 -20 -6 -23 -4 -23
17 0 20 -4 24 -21 20 -14 -4 -17 -9 -10 -16 17 -17 13 -37 -8 -37 -20 0 -37
32 -26 50 3 5 -1 10 -10 10 -13 0 -15 -6 -10 -32z"/>
<path d="M1710 844 c-17 -43 -12 -74 13 -83 26 -10 46 -4 68 21 9 10 21 18 28
18 19 0 12 -29 -11 -41 -19 -10 -20 -12 -4 -21 10 -5 18 -8 19 -6 1 1 8 13 15
25 16 30 15 48 -4 68 -19 19 -49 12 -82 -18 -18 -17 -25 -18 -35 -8 -9 10 -7
16 11 31 13 11 21 24 17 30 -11 17 -25 11 -35 -16z"/>
<path d="M350 745 c-25 -13 -53 -24 -62 -25 -20 0 -22 -8 -8 -30 6 -10 13 -11
18 -5 9 13 62 47 62 40 0 -2 -9 -19 -20 -37 -21 -35 -26 -73 -11 -83 5 -3 26
6 46 19 42 29 74 41 83 31 4 -3 -10 -38 -31 -76 -22 -41 -32 -69 -24 -69 6 0
45 11 85 24 65 20 71 24 56 37 -13 11 -18 11 -21 2 -7 -19 -30 -16 -42 4 -6
12 -5 20 6 28 14 10 12 17 -15 54 -23 32 -32 39 -39 28 -8 -15 -73 -52 -73
-42 0 3 11 28 25 55 39 78 36 83 -35 45z m121 -198 c-13 -13 -26 -3 -16 12 3
6 11 8 17 5 6 -4 6 -10 -1 -17z"/>
<path d="M1656 724 c-9 -25 -7 -34 8 -34 20 0 89 -41 100 -59 7 -11 11 -9 22
10 16 29 18 42 4 34 -12 -7 -110 42 -110 55 0 16 -17 12 -24 -6z"/>
<path d="M1600 639 c-11 -20 -13 -46 -4 -36 8 7 94 -52 94 -65 0 -4 -7 -8 -15
-8 -19 0 -20 -16 0 -23 9 -4 25 9 44 35 25 34 28 44 18 56 -10 13 -12 12 -15
-6 -5 -31 -16 -28 -67 22 -41 39 -47 41 -55 25z"/>
<path d="M1517 542 c-18 -20 -23 -37 -8 -27 14 8 49 -46 54 -85 3 -19 6 -37 6
-39 1 -2 8 2 16 9 9 7 12 16 7 19 -5 3 -12 16 -16 28 -6 18 -4 20 14 16 11 -3
20 -9 20 -14 0 -17 29 -9 40 10 13 26 14 26 -14 27 -36 2 -79 26 -92 52 -10
21 -11 21 -27 4z"/>
<path d="M538 529 c-21 -12 -23 -47 -6 -84 6 -14 9 -27 6 -30 -11 -11 -38 8
-38 26 0 21 -15 25 -25 8 -10 -16 35 -59 61 -59 37 0 49 34 30 82 -16 39 -16
39 6 36 15 -2 24 -11 26 -25 4 -25 17 -30 28 -11 4 6 -6 23 -25 40 -35 31 -38
32 -63 17z"/>
<path d="M670 375 c0 -8 7 -15 15 -15 8 0 15 7 15 15 0 8 -7 15 -15 15 -8 0
-15 -7 -15 -15z"/>
<path d="M1241 371 c-37 -37 -17 -90 29 -78 26 7 25 -11 -2 -40 -29 -31 -8
-30 25 1 34 32 44 72 26 105 -19 33 -52 38 -78 12z m49 -48 c0 -7 -4 -13 -9
-13 -10 0 -21 25 -21 48 1 15 3 14 15 -2 8 -11 15 -26 15 -33z"/>
<path d="M1412 378 c6 -18 28 -21 28 -4 0 9 -7 16 -16 16 -9 0 -14 -5 -12 -12z"/>
<path d="M808 367 c14 -16 -10 -103 -27 -99 -23 5 -10 -16 13 -22 13 -3 32 -9
43 -13 15 -6 16 -4 6 9 -10 12 -10 25 2 64 21 69 20 74 -16 74 -25 0 -29 -3
-21 -13z"/>
<path d="M943 353 c-16 -6 -17 -49 -2 -59 8 -5 6 -10 -5 -16 -35 -20 -11 -68
34 -68 42 0 54 14 47 54 -3 20 -1 38 4 41 38 24 -32 67 -78 48z m47 -30 c0
-25 -1 -26 -16 -11 -9 9 -13 21 -10 27 13 20 26 11 26 -16z m-14 -89 c-5 -13
-10 -14 -18 -6 -6 6 -8 18 -4 28 5 13 10 14 18 6 6 -6 8 -18 4 -28z"/>
<path d="M1098 349 c-26 -15 -24 -76 2 -84 11 -3 24 -4 30 0 6 3 7 -1 4 -10
-4 -8 -18 -22 -33 -30 -26 -14 -26 -14 -3 -15 30 0 82 52 82 82 0 31 -27 68
-48 68 -9 0 -25 -5 -34 -11z m40 -42 c4 -29 -12 -37 -22 -11 -10 26 -7 46 7
42 6 -3 13 -17 15 -31z"/>
</g>
</svg>
